/vscmnt/brussel_pixiu_data/_data_brussel/112/vsc11236/PredSimResults/SUBJ09opt3D/expIG/worker_09.mot
version=1
nRows=4
nColumns=50
inDegrees=yes
endheader
                time	         pelvis_tilt	         pelvis_list	     pelvis_rotation	           pelvis_tx	           pelvis_ty	           pelvis_tz	       hip_flexion_r	     hip_adduction_r	      hip_rotation_r	        knee_angle_r	       ankle_angle_r	         mtp_angle_r	       hip_flexion_l	     hip_adduction_l	      hip_rotation_l	        knee_angle_l	       ankle_angle_l	         mtp_angle_l	    lumbar_extension	      lumbar_bending	     lumbar_rotation	 ercspn_r/activation	 intobl_r/activation	 extobl_r/activation	    abd_r/activation	    add_r/activation	hamstrings_r/activation	bifemsh_r/activation	glut_max_r/activation	iliopsoas_r/activation	rect_fem_r/activation	  vasti_r/activation	gastroc_r/activation	 soleus_r/activation	tib_ant_r/activation	 ercspn_l/activation	 intobl_l/activation	 extobl_l/activation	    abd_l/activation	    add_l/activation	hamstrings_l/activation	bifemsh_l/activation	glut_max_l/activation	iliopsoas_l/activation	rect_fem_l/activation	  vasti_l/activation	gastroc_l/activation	 soleus_l/activation	tib_ant_l/activation	
          1.18230841	         -5.11894646	         -1.80934706	          9.18021679	          1.65523177	          0.98209487	         -0.00323453	         31.13795171	         -1.18085475	         -9.19886476	         -7.43326637	          5.02087184	          0.25290434	        -15.23094221	         -3.38909801	         -3.34725540	        -10.17951036	          1.37831124	         40.34273582	        -12.78656007	          0.31691338	         -6.85663278	          0.04172591	          0.13254716	          0.02053504	          0.01000022	          0.25649448	          0.06932520	          0.14809775	          0.15458742	          0.12543534	          0.01000050	          0.01000026	          0.01715531	          0.01131608	          0.36131204	          0.06097634	          0.01000022	          0.01000025	          0.02340222	          0.05327871	          0.02289567	          0.19517905	          0.01016461	          0.03562529	          0.01000031	          0.01000020	          0.30577108	          0.18853060	          0.01197064	
          1.19413149	         -5.10617103	         -1.95055623	          9.15597915	          1.67678617	          0.97971140	         -0.00263419	         31.00581128	         -0.97530184	         -9.35096900	         -9.38179988	          4.60164462	          0.20916372	        -15.71493740	         -3.77433393	         -3.83770261	        -11.40734824	          0.02002287	         41.95407572	        -12.24600686	          0.73875756	         -7.05231185	          0.03485751	          0.11072806	          0.01715470	          0.11645450	          0.22985254	          0.07163365	          0.12371885	          0.18968071	          0.10478693	          0.01000016	          0.01000016	          0.01433137	          0.01197052	          0.40835700	          0.05094015	          0.01000013	          0.01000019	          0.01954989	          0.04450848	          0.02053947	          0.16305003	          0.01000013	          0.09639662	          0.01000036	          0.01000031	          0.25543699	          0.15749587	          0.01000011	
          1.20595458	         -5.07697336	         -2.08810206	          9.09567952	          1.69834742	          0.97766692	         -0.00193588	         30.82818255	         -0.75958329	         -9.45031904	        -11.26361151	          4.02669470	          0.19905297	        -15.88350486	         -4.17915016	         -4.33860068	        -13.22251627	         -1.36488776	         43.28179635	        -11.72325513	          1.15475664	         -7.21482886	          0.02912053	          0.09250068	          0.01433081	          0.17763249	          0.26494478	          0.05984184	          0.10335305	          0.23314991	          0.08753755	          0.01000012	          0.01000028	          0.01197226	          0.01000006	          0.45859135	          0.06812193	          0.01000009	          0.01000012	          0.01633171	          0.03718272	          0.01715872	          0.13620986	          0.01000007	          0.15841588	          0.01000018	          0.01000013	          0.21338851	          0.13156986	          0.01000002	
          1.21777766	         -5.03303665	         -2.22582025	          9.00435271	          1.71954202	          0.97617588	         -0.00112955	         30.76375650	         -0.53861725	         -9.49445138	        -13.33085281	          3.49197143	          0.15781670	        -15.61761403	         -4.61850087	         -4.84685771	        -15.78881773	         -2.72490260	         44.07734968	        -11.26086596	          1.57161413	         -7.34279918	          0.05137327	          0.07727379	          0.01197177	          0.22000773	          0.30850979	          0.05446918	          0.08633974	          0.26326647	          0.07312765	          0.01000018	          0.13759673	          0.01000158	          0.01000029	          0.48223659	          0.11083199	          0.01000010	          0.01000008	          0.01364329	          0.12303912	          0.01433425	          0.11378795	          0.01000003	          0.17510539	          0.01000015	          0.01000005	          0.17826178	          0.10991163	          0.01000004	
